<?xml version="1.0" encoding="utf-8"?>
<!-- Generator: Adobe Illustrator 26.0.2, SVG Export Plug-In . SVG Version: 6.00 Build 0)  -->
<svg version="1.1" id="Layer_1" xmlns="http://www.w3.org/2000/svg" xmlns:xlink="http://www.w3.org/1999/xlink" x="0px" y="0px"
	 viewBox="0 0 24 24" style="enable-background:new 0 0 24 24;" xml:space="preserve">
<style type="text/css">
	.st0{fill:#FFFFFF;}
</style>
<path class="st0" d="M13.5,8H12v5l4.3,2.5l0.7-1.2l-3.5-2.1V8 M13,3c-5,0-9,4-9,9H1l4,4l4-4H6c0-3.9,3.1-7,7-7s7,3.1,7,7s-3.1,7-7,7
	c-1.9,0-3.7-0.8-4.9-2.1l-1.4,1.4C8.3,20,10.5,21,13,21c5,0,9-4,9-9S18,3,13,3"/>
</svg>
