<?xml version="1.0" encoding="utf-8"?>
<!-- Generator: Adobe Illustrator 26.0.2, SVG Export Plug-In . SVG Version: 6.00 Build 0)  -->
<svg version="1.1" id="Layer_1" xmlns="http://www.w3.org/2000/svg" xmlns:xlink="http://www.w3.org/1999/xlink" x="0px" y="0px"
	 viewBox="0 0 24 24" style="enable-background:new 0 0 24 24;" xml:space="preserve">
<style type="text/css">
	.st0{fill:#FFFFFF;}
</style>
<path class="st0" d="M12,1L3,5v6c0,5.5,3.8,10.7,9,12c5.2-1.3,9-6.5,9-12V5L12,1 M12,5c1.7,0,3,1.3,3,3s-1.3,3-3,3S9,9.7,9,8
	S10.3,5,12,5 M17.1,17c-1.2,1.9-3,3.2-5.1,3.9c-2.1-0.7-3.9-2.1-5.1-3.9c-0.3-0.5-0.6-1-0.9-1.5c0-1.7,2.7-3,6-3s6,1.3,6,3
	C17.8,16,17.5,16.5,17.1,17z"/>
</svg>
